<svg id="Layer_1" enable-background="new 0 0 512 512" height="512" viewBox="0 0 512 512" width="512" xmlns="http://www.w3.org/2000/svg"><g><path d="m498.032.038c-54.872 4.151-104.853 17.9-149.358 38.266l19.591 98.199 105.014 26.572c29.105-65.017 36.704-122.862 38.683-149.06.6-7.946-5.995-14.578-13.93-13.977z" fill="#ff1f3d"/><path d="m473.279 163.075c29.105-65.017 36.704-122.862 38.683-149.06.3-3.978-1.203-7.626-3.774-10.203l-134.152 134.152z" fill="#b10f61"/><path d="m230.916 397.505 23.668 109.598c1.037 4.8 6.968 6.548 10.435 3.075l74.365-74.464c2.251-2.254 3.447-5.356 3.292-8.54l-4.711-97.046-82.248-19.441c-6.455-1.526-12.827 2.825-13.765 9.399l-11.057 77.441" fill="#b10f61"/><path d="m114.322 280.797 70.533-22.296c5.302-1.676 8.595-6.969 7.761-12.473l-10.985-72.445-96.917-4.718c-3.18-.155-6.277 1.042-8.528 3.297l-74.367 74.465c-3.468 3.472-1.722 9.411 3.071 10.449l109.451 23.699" fill="#ff1f3d"/><path d="m220.156 127.873c-39.643 39.696-79.164 104.505-105.835 152.924l31.452 86.39 85.121 30.339c52.18-30.434 123.132-74.388 153.699-104.996 41.63-41.686 69.72-87.092 88.685-129.455l-124.604-124.771c-50.042 22.9-93.161 54.165-128.518 89.569z" fill="#fff1f3"/><path d="m145.774 367.187 85.121 30.339c52.18-30.434 123.132-74.388 153.699-104.996 41.63-41.686 69.72-87.092 88.685-129.456l-62.135-62.218-265.627 265.626z" fill="#eceae7"/><path d="m119.162 449.52-.002-.002c4.014-2.397 7.708-5.54 10.87-9.449 12.364-15.286 11.891-37.637-1.081-52.409-15.674-17.848-42.86-18.502-59.377-1.962-3.704 3.709-6.533 7.959-8.51 12.492l-.002-.001-50.059 91.081c-4.186 7.616 4.105 16.011 11.757 11.903l92.042-49.408c1.48-.655 2.93-1.395 4.339-2.235z" fill="#ff6b6b"/><path d="m248.869 263.779c-6.295-6.304-16.502-6.304-22.797 0l-79.407 79.513 22.797 22.828 79.407-79.513c6.295-6.304 6.295-16.524 0-22.828z" fill="#e7dfdd"/><ellipse cx="324.457" cy="188.09" fill="#eceae7" rx="51.289" ry="51.357"/><path d="m22.759 501.175 92.042-49.408c1.48-.655 2.93-1.395 4.339-2.235l.022-.011-.002-.001c4.014-2.397 7.708-5.54 10.87-9.449 12.364-15.286 11.892-37.637-1.081-52.408-.725-.826-1.483-1.603-2.256-2.355l-114.281 114.28c2.504 2.559 6.506 3.648 10.347 1.587z" fill="#ff1f3d"/><path d="m169.462 366.12 79.407-79.513c6.295-6.304 6.295-16.524 0-22.828-.109-.109-.229-.202-.34-.308l-90.85 90.85z" fill="#dad0cb"/><path d="m288.19 224.406c20.03 20.056 52.504 20.056 72.533 0 20.03-20.056 20.03-52.574 0-72.63-.084-.084-.171-.16-.255-.243l-72.568 72.567c.099.101.19.206.29.306z" fill="#add3d8"/><path d="m324.457 255.59c-18.006 0-34.934-7.021-47.666-19.77s-19.744-29.699-19.744-47.729c0-18.029 7.012-34.98 19.744-47.729 26.282-26.317 69.048-26.317 95.331-.001 26.283 26.319 26.283 69.141 0 95.459-12.732 12.748-29.66 19.77-47.665 19.77zm0-102.698c-9.007 0-18.011 3.431-24.868 10.297-6.642 6.652-10.301 15.495-10.301 24.901 0 9.407 3.659 18.25 10.301 24.901 6.643 6.652 15.474 10.315 24.868 10.315s18.225-3.663 24.868-10.314c13.712-13.731 13.712-36.072-.001-49.803-6.854-6.864-15.862-10.297-24.867-10.297z" fill="#004960"/><path d="m349.324 163.189c13.712 13.73 13.712 36.072 0 49.802-6.643 6.651-15.474 10.314-24.868 10.314s-18.225-3.663-24.868-10.315c-.097-.097-.187-.199-.283-.297l-22.813 22.813c.101.103.196.211.298.313 12.732 12.749 29.66 19.77 47.666 19.77 18.005 0 34.933-7.021 47.665-19.77 26.283-26.317 26.283-69.14 0-95.459-.081-.081-.166-.155-.247-.236l-22.813 22.813c.087.087.177.166.263.252z" fill="#003140"/><path d="m86.746 333.507c-3.252 6.577-1.948 14.492 3.234 19.681l70.061 70.154c5.381 5.388 13.666 6.567 20.328 2.886 11.013-6.085 29.205-16.267 50.525-28.702l-116.574-116.73c-12.389 22.495-22.009 41.456-27.574 52.711z" fill="#45f6ff"/><path d="m160.041 423.342c5.381 5.388 13.666 6.567 20.328 2.886 11.013-6.085 29.205-16.267 50.525-28.702l-58.172-58.25-48.35 48.35z" fill="#5ecbf1"/></g></svg>